<?xml version="1.0" encoding="utf-8"?>
<!-- Generator: Adobe Illustrator 24.0.1, SVG Export Plug-In . SVG Version: 6.00 Build 0)  -->
<svg version="1.1" xmlns="http://www.w3.org/2000/svg" xmlns:xlink="http://www.w3.org/1999/xlink" x="0px" y="0px"
	 viewBox="0 0 725.48 543.54" style="enable-background:new 0 0 725.48 543.54;" xml:space="preserve">
<style type="text/css">
	.st0{fill:#333333;}
	.st1{fill:none;stroke:#000000;stroke-width:2.0407;stroke-miterlimit:10;}
	.st2{fill:none;stroke:#4D4D4D;stroke-width:17;stroke-miterlimit:10;}
	.st3{fill:none;stroke:#808080;stroke-width:5;stroke-miterlimit:10;}
	.st4{fill:none;stroke:#CCCCCC;stroke-width:15;stroke-miterlimit:10;}
	.st5{fill:#1A1A1A;}
	.st6{fill:#666666;}
</style>
<g id="Knob">
	<circle class="st0" cx="408.01" cy="136.78" r="94.47"/>
	<line class="st1" x1="271.23" y1="136.78" x2="306.48" y2="136.78"/>
	<line class="st1" x1="290.97" y1="104.35" x2="310.71" y2="112.81"/>
	<line class="st1" x1="288.15" y1="67.68" x2="319.17" y2="87.42"/>
	<line class="st1" x1="321.99" y1="50.76" x2="336.09" y2="64.86"/>
	<line class="st1" x1="338.91" y1="16.92" x2="355.83" y2="47.94"/>
	<line class="st1" x1="378.39" y1="22.56" x2="381.21" y2="39.48"/>
	<line class="st1" x1="406.6" y1="0" x2="406.6" y2="36.66"/>
	<line class="st1" x1="431.98" y1="36.66" x2="437.62" y2="22.56"/>
	<line class="st1" x1="457.36" y1="47.94" x2="474.28" y2="19.74"/>
	<line class="st1" x1="477.1" y1="64.86" x2="491.2" y2="53.58"/>
	<line class="st1" x1="494.02" y1="87.42" x2="522.22" y2="70.5"/>
	<line class="st1" x1="505.3" y1="109.99" x2="519.4" y2="104.35"/>
	<line class="st1" x1="508.12" y1="135.37" x2="541.96" y2="135.37"/>
	<line class="st1" x1="502.48" y1="160.75" x2="522.22" y2="166.39"/>
	<line class="st1" x1="494.02" y1="186.13" x2="522.22" y2="203.05"/>
	<line class="st1" x1="477.1" y1="205.87" x2="491.2" y2="219.97"/>
	<line class="st1" x1="457.36" y1="222.79" x2="474.28" y2="253.81"/>
	<line class="st1" x1="355.83" y1="222.79" x2="338.91" y2="253.81"/>
	<line class="st1" x1="321.99" y1="219.97" x2="336.09" y2="205.87"/>
	<line class="st1" x1="288.15" y1="205.87" x2="319.17" y2="186.13"/>
	<line class="st1" x1="290.97" y1="166.39" x2="307.89" y2="160.75"/>
</g>
<g id="KnobTop">
	<circle class="st2" cx="408.09" cy="137.88" r="85.02"/>
	<path class="st3" d="M485.15,138.19c0,42.84-34.72,77.55-77.55,77.55c-40.47,0-73.66-30.97-77.22-70.5h-11.62V125.5h12.35
		c6.01-36.8,37.96-64.86,76.48-64.86C450.43,60.63,485.15,95.35,485.15,138.19z"/>
	<line id="RotateIt" class="st4" x1="320.96" y1="135.82" x2="408.01" y2="135.78"/>
</g>
<g id="Cat">
	<g>
		<path class="st5" d="M322.59,311.11c-13.36-14.85-15.82-16.55-25.51-23.6c-7.64-5.56-15.74-7.09-32.52-10.98
			c-21.34-4.95-57.66-13.51-61.57-30.81c-1.01-4.45-0.48-11.04-0.21-14.38c0.47-5.88,1.25-6.82,2.17-15.61
			c0.5-4.75,0.38-5.47,1.03-12c0.62-6.25,1.11-9.35,1.27-10.97c1.12-11.05-5-30.02-16.27-31.96c-6.85-1.18-13.77,4.25-17.14,8.77
			c-4.91,6.6-4.51,14.29-3.94,25.09c0.39,7.41,1.29,6.56,2.67,19.14c1.03,9.38,1.32,16.99,1.53,22.75
			c0.31,8.56,0.2,13.57,0.24,16.78c0.05,4.32,0.38,32.95,15.17,54.91c6.18,9.18,10.17,13.59,20.66,20.08
			c22.88,14.14,30.63,42.62,46.41,60.45c21.43,24.21,54.46,25.17,119.04,27.05c44.66,1.3,93.83,2.1,139.83-27.18
			c10.29-6.55,42.85-27.28,40.05-48.52c-1.84-13.95-18.89-27.57-15-42.93c0.54-2.15,2.08-6.64,2.21-13.22
			c0.07-3.65-0.35-5.31-1.41-14.36c-0.43-3.7-0.06-0.84-1.39-13.16c-1.66-15.41-1.91-16.82-2.67-19.14
			c-1.06-3.24-2.8-8.34-7.38-13.08c-1.61-1.66-4.18-4.26-8.47-5.87c-0.9-0.34-5.22-1.88-10.8-1.04c-2.57,0.39-4.91,0.74-7.15,2.5
			c-3.71,2.92-4.35,7.5-4.65,9.66c-0.13,0.96-0.6,4.74,1.35,10.77c2.73,8.42,5.92,8.08,7.4,14.28c0.74,3.09-0.29,2.2-0.97,15.59
			c-0.33,6.46-0.17,8.24-1.03,12c-0.91,4.01-2.21,6.88-3.46,9.64c-2.52,5.57-5.29,9.71-7.02,12.09c-4.71,6.49-5.54,5.24-9.43,10.92
			c-2.81,4.1-4.49,7.95-7,13.28c-4.92,10.43-4.85,14-6.93,18.08c-4.59,9-15.18,11.7-40.5,17.36c-34.6,7.73-38.41,13.96-47.79,10.28
			c-10.16-3.99-20.1-14.63-21.81-16.46c-1.03-1.1-1.8-1.99-2.44-2.79c-1.51-1.86-2.19-2.89-3.49-4.58
			c-1.71-2.22-3.03-3.59-3.83-4.48C347.29,340.39,334.06,323.86,322.59,311.11z"/>
	</g>
	<g>
		<path class="st5" d="M596.51,232.25c-1.52-2.34,2.58-9.14,5.66-14.26c0.05-0.08,0.09-0.15,0.12-0.2
			c7.32,2.37,12.42,6.26,12.12,9.41C613.91,232.41,598.67,235.59,596.51,232.25z"/>
		<path d="M600.87,234.22c-2.23,0-4.11-0.47-4.87-1.65c-1.6-2.46,1.47-7.96,5.65-14.9l0.37-0.61l0.45,0.15
			c7.83,2.53,12.86,6.57,12.53,10.04c-0.3,3.1-4.77,5.27-8.86,6.28C604.4,233.96,602.54,234.22,600.87,234.22z M602.56,218.51
			c-2.78,4.62-6.84,11.42-5.55,13.42l0,0c0.82,1.26,4.71,1.46,8.85,0.44c3.8-0.93,7.73-2.91,7.96-5.23
			C614.08,224.4,609.37,220.8,602.56,218.51z"/>
	</g>
	<g>
		<path class="st0" d="M124.28,438.61c-13.58-3.44-26.29-6.65-40.67-15.66c-15.33-9.61-27.25-22.42-34.3-30
			c-7.44-8-12.47-14.54-15.85-18.95c-11.74-15.27-20.85-30.15-27.93-43.65c0,0-7.43-13.69-5.07-25.27c0,0,0.02-0.05,0.03-0.14
			c0-0.01,0-0.02,0-0.03c0.46-3.06,2.56-6.39,7.86-9.65c5.04-2.25,12.1-4.39,17.96-1.46c9.24,4.62,10.17,19.19,11.07,25.32
			c5.65,38.48,57.6,68.82,85.13,79.96c34.19,13.82,65.46,12.06,82.83,9.59c15.23,0.81,26.19,1.4,26.41,1.42c0.03,0,0.26,0,0.57-0.01
			c0,0,0,0,0,0c11.2-0.37,13.2-4.65,33.4-11.27c19.87-6.52,20.58-2.42,40.62-8.98c24.11-7.89,29.45-14.52,52.45-19.93
			c11.41-2.68,9.16-0.83,34.68-5.29c20.57-3.59,30.86-5.39,40.62-8.98c15.52-5.69,12.92-8.07,36.89-18.51
			c14.14-6.16,17.51-6.4,28.59-12.4c12.67-6.86,11.85-8.49,22.58-13.51c9.98-4.67,13.49-5.2,27.4-11.18
			c8.03-3.45,14.47-6.61,18.74-8.8c-1.66-1.81-3-3.88-3.98-6.39c-3.87-9.98,0.1-21.95,5.58-28.84c1.98-2.49,2.31-2.01,7.68-7.9
			c7.28-7.99,6.75-9.17,10.61-12.14c5.24-4.03,10.02-5.61,15.47-7.41c6.63-2.19,12.02-2.49,13.15-2.59c6.8-0.6,20.31-1.8,32.44,5.52
			c5.15,3.11,8.98,7.11,14.57,12.97c6.32,6.64,5.6,7.1,8.53,9.46c8.4,6.78,19.13,6.87,25.27,6.83c16.63-0.1,25.38-6.99,27.51-3.99
			c2.17,3.05-5.46,12.1-10.52,18.13c-3.49,4.14-7.53,8.88-14.19,13.39c-1.93,1.31-3.53,2.22-4.91,2.91
			c-3.76,1.89-5.09,2.11-7.39,3.41c-2.98,1.68-4.75,3.72-6.6,5.88c-4.31,5.06-5.57,9.99-7.11,12.14
			c-1.03,1.43-13.99,19.04-27.91,17.78c-0.11-0.01-0.22-0.02-0.31-0.03c4.46,8.68-0.76,21.55-7.05,29.5
			c-8.72,11.03-15.9,8.04-34.44,22.07c-8.78,6.65-7.52,7.59-18.93,17.05c-3.93,3.27-18.5,15.36-32.04,22.03
			c-15.88,7.83-29.88,7.97-52.62,7.95c-39.47-0.04-63.09-9.43-85.14-3.57c-14.96,3.98-23.69,7.1-23.69,7.1
			c-6.29,2.13-10.09,3.66-15.55,5.43c-7.01,2.28-12.27,3.56-13.26,3.81c-26.18,6.81-85.83,45.87-121.22,29.91
			c-3.55-1.6-1.82-2.62-6.63-7.54C211.31,439.33,181.19,453.03,124.28,438.61z"/>
	</g>
	<g>
		<path class="st6" d="M675.38,342.65c0.14-0.5,0.36-1.33,0.58-2.48c2.42-12.58-2.43-28-13.7-35.76c-0.77-0.53-12.5-8.43-18.63-3.93
			c-4.76,3.49-3.88,12.8-2.75,17.42c1.5,6.11,4.19,7,4.97,11.91c0.2,1.27,0.97,7.17-5.75,16.86c-7.54,10.89-15.82,14-35.57,26.88
			c-13.18,8.6-10.15,7.6-17.8,12.24c-14.78,8.96-28.7,13.63-47.65,19.86c-16.22,5.34-24.33,8-35.81,10.1
			c-13.6,2.49-20.17,2.12-40.71,2.98c-18.44,0.78-42.26,1.79-68.25,4.58c-29.79,3.2-38.38,6.16-46.75-0.52
			c-5.97-4.77-3.48-7.79-15.99-28.53c-6.18-10.25-11.65-17.57-17.14-24.92c-7.51-10.05-11.35-15.15-15.85-18.95
			c-2.79-2.35-11.89-9.51-25.35-12.82c-8.56-2.1-11.08-0.7-18.63-3.93c-4.04-1.72-10.1-4.31-14.53-10.58
			c-4.87-6.88-4.99-14.25-5.07-19.1c-0.11-6.99,1.47-12.15,3.34-18.03c2.92-9.22,4.87-10.13,9.27-21.71
			c3.16-8.32,4.74-12.47,5.14-17.45c0.91-11.27-3.22-19.98-5.14-23.9c-2.81-5.72-5.25-10.72-10.99-14.22
			c-1.73-1.06-11.35-6.62-19.21-2.12c-7.77,4.45-8.06,15.44-8.13,18.09c-0.23,8.97,4.07,9.93,5.09,20.3
			c0.47,4.8-0.77,10.87-3.27,22.82c-2.48,11.88-2.98,11.15-4.52,19.24c-2.33,12.32-0.77,11.86-3.2,27.61
			c-1.41,9.13-2.51,13.03-2.1,20.4c0.27,4.8,0.52,8.73,2.59,13.15c2.88,6.18,6.71,7.77,13.39,14.19c1.65,1.59,9.7,9.32,13.42,16.59
			c5.54,10.8,2.23,21.9,0.45,31.15c-0.89,4.64-8.27,42.99,5.78,68.23c7.94,14.28,21.44,21.27,48.45,35.26
			c15.72,8.14,29.22,12.69,39.78,16.21c12.15,4.04,25.7,8.55,44.51,11.34c20.52,3.05,38,2.68,50.36,1.67
			c11.84-0.96,27.47-2.34,46.61-9.06c5.16-1.81,14.52-5.35,33.33-16.06c26.42-15.04,30.69-20.98,61.67-41.35
			c29.27-19.25,34.13-19.66,49-32.87c14.2-12.61,23.06-24.04,29.22-32.07C639.84,411.4,665.7,377.7,675.38,342.65z"/>
	</g>
</g>
</svg>
