<?xml version="1.0" encoding="utf-8"?>
<!-- Generator: Adobe Illustrator 24.0.1, SVG Export Plug-In . SVG Version: 6.00 Build 0)  -->
<svg version="1.1" id="Layer_1" xmlns="http://www.w3.org/2000/svg" xmlns:xlink="http://www.w3.org/1999/xlink" x="0px" y="0px"
	 viewBox="0 0 725.6 383" style="enable-background:new 0 0 725.6 383;" xml:space="preserve">
<style type="text/css">
	.st0{fill:#1A1A1A;}
	.st1{fill:#333333;}
	.st2{fill:#4D4D4D;}
</style>
<g id="Cat">
	<g>
		<path class="st0" d="M322.6,150.6c-13.4-14.9-15.8-16.5-25.5-23.6c-7.6-5.6-15.7-7.1-32.5-11c-21.3-5-57.7-13.5-61.6-30.8
			c-1-4.4-0.5-11-0.2-14.4c0.5-5.9,1.2-6.8,2.2-15.6c0.5-4.8,0.4-5.5,1-12c0.6-6.2,1.1-9.4,1.3-11c1.1-11.1-5-30-16.3-32
			C184.1-1,177.2,4.4,173.9,9c-4.9,6.6-4.5,14.3-3.9,25.1c0.4,7.4,1.3,6.6,2.7,19.1c1,9.4,1.3,17,1.5,22.8
			c0.3,8.6,0.2,13.6,0.2,16.8c0.1,4.3,0.4,33,15.2,54.9c6.2,9.2,10.2,13.6,20.7,20.1c22.9,14.1,30.6,42.6,46.4,60.5
			c21.4,24.2,54.5,25.2,119,27c44.7,1.3,93.8,2.1,139.8-27.2c10.3-6.5,42.8-27.3,40-48.5c-1.8-14-18.9-27.6-15-42.9
			c0.5-2.1,2.1-6.6,2.2-13.2c0.1-3.6-0.3-5.3-1.4-14.4c-0.4-3.7-0.1-0.8-1.4-13.2c-1.7-15.4-1.9-16.8-2.7-19.1
			c-1.1-3.2-2.8-8.3-7.4-13.1c-1.6-1.7-4.2-4.3-8.5-5.9c-0.9-0.3-5.2-1.9-10.8-1c-2.6,0.4-4.9,0.7-7.1,2.5c-3.7,2.9-4.4,7.5-4.6,9.7
			c-0.1,1-0.6,4.7,1.4,10.8c2.7,8.4,5.9,8.1,7.4,14.3c0.7,3.1-0.3,2.2-1,15.6c-0.3,6.5-0.2,8.2-1,12c-0.9,4-2.2,6.9-3.5,9.6
			c-2.5,5.6-5.3,9.7-7,12.1c-4.7,6.5-5.5,5.2-9.4,10.9c-2.8,4.1-4.5,8-7,13.3c-4.9,10.4-4.9,14-6.9,18.1c-4.6,9-15.2,11.7-40.5,17.4
			c-34.6,7.7-38.4,14-47.8,10.3c-10.2-4-20.1-14.6-21.8-16.5c-1-1.1-1.8-2-2.4-2.8c-1.5-1.9-2.2-2.9-3.5-4.6c-1.7-2.2-3-3.6-3.8-4.5
			C347.3,179.9,334.1,163.4,322.6,150.6z"/>
	</g>
	<g>
		<path class="st0" d="M596.5,71.7c-1.5-2.3,2.6-9.1,5.7-14.3c0-0.1,0.1-0.1,0.1-0.2c7.3,2.4,12.4,6.3,12.1,9.4
			C613.9,71.9,598.7,75.1,596.5,71.7z"/>
		<path d="M600.9,73.7c-2.2,0-4.1-0.5-4.9-1.6c-1.6-2.5,1.5-8,5.7-14.9l0.4-0.6l0.5,0.1c7.8,2.5,12.9,6.6,12.5,10
			c-0.3,3.1-4.8,5.3-8.9,6.3C604.4,73.5,602.5,73.7,600.9,73.7z M602.6,58c-2.8,4.6-6.8,11.4-5.5,13.4l0,0c0.8,1.3,4.7,1.5,8.8,0.4
			c3.8-0.9,7.7-2.9,8-5.2C614.1,63.9,609.4,60.3,602.6,58z"/>
	</g>
	<g>
		<path class="st1" d="M124.3,278.1c-13.6-3.4-26.3-6.6-40.7-15.7c-15.3-9.6-27.2-22.4-34.3-30c-7.4-8-12.5-14.5-15.9-19
			c-11.7-15.3-20.9-30.1-27.9-43.6c0,0-7.4-13.7-5.1-25.3c0,0,0,0,0-0.1l0,0c0.5-3.1,2.6-6.4,7.9-9.6c5-2.2,12.1-4.4,18-1.5
			c9.2,4.6,10.2,19.2,11.1,25.3c5.7,38.5,57.6,68.8,85.1,80c34.2,13.8,65.5,12.1,82.8,9.6c15.2,0.8,26.2,1.4,26.4,1.4
			c0,0,0.3,0,0.6,0l0,0c11.2-0.4,13.2-4.6,33.4-11.3c19.9-6.5,20.6-2.4,40.6-9c24.1-7.9,29.5-14.5,52.5-19.9
			c11.4-2.7,9.2-0.8,34.7-5.3c20.6-3.6,30.9-5.4,40.6-9c15.5-5.7,12.9-8.1,36.9-18.5c14.1-6.2,17.5-6.4,28.6-12.4
			c12.7-6.9,11.9-8.5,22.6-13.5c10-4.7,13.5-5.2,27.4-11.2c8-3.5,14.5-6.6,18.7-8.8c-1.7-1.8-3-3.9-4-6.4c-3.9-10,0.1-22,5.6-28.8
			c2-2.5,2.3-2,7.7-7.9c7.3-8,6.8-9.2,10.6-12.1c5.2-4,10-5.6,15.5-7.4c6.6-2.2,12-2.5,13.2-2.6c6.8-0.6,20.3-1.8,32.4,5.5
			c5.2,3.1,9,7.1,14.6,13c6.3,6.6,5.6,7.1,8.5,9.5c8.4,6.8,19.1,6.9,25.3,6.8c16.6-0.1,25.4-7,27.5-4c2.2,3-5.5,12.1-10.5,18.1
			c-3.5,4.1-7.5,8.9-14.2,13.4c-1.9,1.3-3.5,2.2-4.9,2.9c-3.8,1.9-5.1,2.1-7.4,3.4c-3,1.7-4.8,3.7-6.6,5.9c-4.3,5.1-5.6,10-7.1,12.1
			c-1,1.4-14,19-27.9,17.8c-0.1,0-0.2,0-0.3,0c4.5,8.7-0.8,21.5-7,29.5c-8.7,11-15.9,8-34.4,22.1c-8.8,6.6-7.5,7.6-18.9,17
			c-3.9,3.3-18.5,15.4-32,22c-15.9,7.8-29.9,8-52.6,8c-39.5,0-63.1-9.4-85.1-3.6c-15,4-23.7,7.1-23.7,7.1
			c-6.3,2.1-10.1,3.7-15.5,5.4c-7,2.3-12.3,3.6-13.3,3.8c-26.2,6.8-85.8,45.9-121.2,29.9c-3.6-1.6-1.8-2.6-6.6-7.5
			C211.3,278.8,181.2,292.5,124.3,278.1z"/>
	</g>
	<g>
		<path class="st2" d="M675.4,182.1c0.1-0.5,0.4-1.3,0.6-2.5c2.4-12.6-2.4-28-13.7-35.8c-0.8-0.5-12.5-8.4-18.6-3.9
			c-4.8,3.5-3.9,12.8-2.8,17.4c1.5,6.1,4.2,7,5,11.9c0.2,1.3,1,7.2-5.8,16.9c-7.5,10.9-15.8,14-35.6,26.9
			c-13.2,8.6-10.2,7.6-17.8,12.2c-14.8,9-28.7,13.6-47.7,19.9c-16.2,5.3-24.3,8-35.8,10.1c-13.6,2.5-20.2,2.1-40.7,3
			c-18.4,0.8-42.3,1.8-68.2,4.6c-29.8,3.2-38.4,6.2-46.8-0.5c-6-4.8-3.5-7.8-16-28.5c-6.2-10.2-11.6-17.6-17.1-24.9
			c-7.5-10-11.4-15.1-15.9-19c-2.8-2.4-11.9-9.5-25.4-12.8c-8.6-2.1-11.1-0.7-18.6-3.9c-4-1.7-10.1-4.3-14.5-10.6
			c-4.9-6.9-5-14.2-5.1-19.1c-0.1-7,1.5-12.1,3.3-18c2.9-9.2,4.9-10.1,9.3-21.7c3.2-8.3,4.7-12.5,5.1-17.4c0.9-11.3-3.2-20-5.1-23.9
			c-2.8-5.7-5.2-10.7-11-14.2c-1.7-1.1-11.4-6.6-19.2-2.1c-7.8,4.4-8.1,15.4-8.1,18.1c-0.2,9,4.1,9.9,5.1,20.3
			c0.5,4.8-0.8,10.9-3.3,22.8s-3,11.1-4.5,19.2c-2.3,12.3-0.8,11.9-3.2,27.6c-1.4,9.1-2.5,13-2.1,20.4c0.3,4.8,0.5,8.7,2.6,13.1
			c2.9,6.2,6.7,7.8,13.4,14.2c1.6,1.6,9.7,9.3,13.4,16.6c5.5,10.8,2.2,21.9,0.4,31.1c-0.9,4.6-8.3,43,5.8,68.2
			c7.9,14.3,21.4,21.3,48.5,35.3c15.7,8.1,29.2,12.7,39.8,16.2c12.1,4,25.7,8.5,44.5,11.3c20.5,3,38,2.7,50.4,1.7
			c11.8-1,27.5-2.3,46.6-9.1c5.2-1.8,14.5-5.3,33.3-16.1c26.4-15,30.7-21,61.7-41.4c29.3-19.2,34.1-19.7,49-32.9
			c14.2-12.6,23.1-24,29.2-32.1C639.8,250.9,665.7,217.2,675.4,182.1z"/>
	</g>
</g>
</svg>
