<svg id="Cat" 
  xmlns="http://www.w3.org/2000/svg" viewBox="0 0 725.48 543.54">
  <defs>
    <style>
      .cls-1, .cls-2, .cls-3 {
        fill: none;
        stroke-miterlimit: 10;
      }

      .cls-1, .cls-2 {
        stroke: #e6e6e6;
      }

      .cls-1 {
        stroke-width: 1.36px;
      }

      .cls-2 {
        stroke-width: 4.08px;
      }

      .cls-3 {
        stroke: #000;
        stroke-width: 2.04px;
      }

      .cls-4 {
        fill: #1a1a1a;
      }

      .cls-5 {
        fill: #333;
      }

      .cls-6 {
        fill: #666;
      }

      #rotateIt {
        
      }
    </style>
  </defs>
  <title>cat-knob</title>
  <g id="Knob">
    <g>
      <circle id="circle" cx="408.01" cy="136.78" r="94.47"/>
      <path class="cls-1" d="M484.15,138.19a77.55,77.55,0,0,1-154.77,7.05H317.76V125.5h12.35a77.54,77.54,0,0,1,154,12.69Z"/>
      <line id="RotateIt" class="cls-2" x1="334.68" y1="136.78" x2="408.01" y2="136.78"/>
      <line class="cls-3" x1="271.23" y1="136.78" x2="306.48" y2="136.78"/>
      <line class="cls-3" x1="290.97" y1="104.35" x2="310.71" y2="112.81"/>
      <line class="cls-3" x1="288.15" y1="67.68" x2="319.17" y2="87.42"/>
      <line class="cls-3" x1="321.99" y1="50.76" x2="336.09" y2="64.86"/>
      <line class="cls-3" x1="338.91" y1="16.92" x2="355.83" y2="47.94"/>
      <line class="cls-3" x1="378.39" y1="22.56" x2="381.21" y2="39.48"/>
      <line class="cls-3" x1="406.6" x2="406.6" y2="36.66"/>
      <line class="cls-3" x1="431.98" y1="36.66" x2="437.62" y2="22.56"/>
      <line class="cls-3" x1="457.36" y1="47.94" x2="474.28" y2="19.74"/>
      <line class="cls-3" x1="477.1" y1="64.86" x2="491.2" y2="53.58"/>
      <line class="cls-3" x1="494.02" y1="87.42" x2="522.22" y2="70.5"/>
      <line class="cls-3" x1="505.3" y1="109.99" x2="519.4" y2="104.35"/>
      <line class="cls-3" x1="508.12" y1="135.37" x2="541.96" y2="135.37"/>
      <line class="cls-3" x1="502.48" y1="160.75" x2="522.22" y2="166.39"/>
      <line class="cls-3" x1="494.02" y1="186.13" x2="522.22" y2="203.05"/>
      <line class="cls-3" x1="477.1" y1="205.87" x2="491.2" y2="219.97"/>
      <line class="cls-3" x1="457.36" y1="222.79" x2="474.28" y2="253.81"/>
      <line class="cls-3" x1="355.83" y1="222.79" x2="338.91" y2="253.81"/>
      <line class="cls-3" x1="321.99" y1="219.97" x2="336.09" y2="205.87"/>
      <line class="cls-3" x1="288.15" y1="205.87" x2="319.17" y2="186.13"/>
      <line class="cls-3" x1="290.97" y1="166.39" x2="307.89" y2="160.75"/>
    </g>
  </g>
  <path class="cls-4" d="M322.59,311.11c-13.36-14.85-15.82-16.55-25.51-23.6-7.63-5.56-15.74-7.09-32.52-11C243.22,271.58,206.91,263,203,245.72c-1-4.46-.48-11.05-.21-14.38.47-5.88,1.25-6.82,2.17-15.61.5-4.75.38-5.48,1-12,.62-6.25,1.11-9.36,1.27-11,1.12-11.06-5-30-16.28-32-6.85-1.18-13.77,4.24-17.14,8.77-4.91,6.6-4.5,14.29-3.94,25.09.39,7.41,1.29,6.56,2.67,19.14,1,9.37,1.32,17,1.53,22.75.31,8.55.2,13.56.24,16.77,0,4.32.38,32.95,15.18,54.91,6.18,9.18,10.16,13.59,20.66,20.08,22.88,14.14,30.63,42.62,46.41,60.45,21.43,24.21,54.47,25.17,119,27.05,44.66,1.3,93.83,2.1,139.84-27.18,10.29-6.56,42.85-27.29,40-48.52-1.84-14-18.89-27.57-15-42.93A49.11,49.11,0,0,0,542.72,284c.07-3.65-.35-5.31-1.41-14.36-.43-3.69-.06-.84-1.38-13.16-1.66-15.41-1.91-16.82-2.68-19.14a32,32,0,0,0-7.38-13.08,21,21,0,0,0-19.27-6.91c-2.57.39-4.92.74-7.16,2.5-3.71,2.92-4.35,7.51-4.65,9.66-.14,1-.6,4.74,1.35,10.76,2.73,8.42,5.93,8.08,7.4,14.28.74,3.09-.29,2.2-1,15.59-.33,6.46-.17,8.24-1,12a46.75,46.75,0,0,1-3.46,9.64,69.17,69.17,0,0,1-7,12.09c-4.72,6.49-5.54,5.23-9.43,10.92-2.81,4.1-4.49,7.95-7,13.28-4.92,10.43-4.85,14-6.93,18.08-4.6,9-15.18,11.7-40.5,17.36-34.6,7.74-38.41,14-47.79,10.28-10.16-4-20.1-14.63-21.81-16.46-1-1.11-1.8-2-2.45-2.79-1.5-1.86-2.18-2.89-3.48-4.58-1.71-2.21-3-3.59-3.83-4.48C347.29,340.39,334.06,323.86,322.59,311.11Z"/>
  <g>
    <path class="cls-4" d="M596.51,232.25c-1.52-2.34,2.57-9.14,5.66-14.26l.12-.2c7.32,2.37,12.42,6.26,12.12,9.41C613.91,232.41,598.67,235.59,596.51,232.25Z"/>
    <path d="M600.87,234.22c-2.23,0-4.11-.47-4.87-1.64-1.59-2.46,1.48-8,5.66-14.9l.37-.61.44.15c7.83,2.53,12.87,6.57,12.54,10-.3,3.1-4.78,5.27-8.87,6.27A22.64,22.64,0,0,1,600.87,234.22Zm1.69-15.71c-2.79,4.62-6.85,11.42-5.55,13.42h0c.82,1.26,4.71,1.45,8.85.44,3.8-.93,7.73-2.91,7.95-5.23C614.08,224.4,609.37,220.8,602.56,218.51Z"/>
  </g>
  <path class="cls-5" d="M124.28,438.61C110.7,435.17,98,432,83.61,423c-15.33-9.61-27.24-22.42-34.29-30A245,245,0,0,1,33.46,374,301.13,301.13,0,0,1,5.53,330.35S-1.9,316.66.46,305.08a.59.59,0,0,0,0-.14v0c.46-3.05,2.56-6.38,7.86-9.65,5-2.25,12.1-4.38,18-1.45,9.24,4.62,10.17,19.19,11.07,25.32C43,357.61,95,388,122.51,399.09c34.19,13.82,65.47,12.06,82.84,9.59l26.41,1.41s.25,0,.57,0h0c11.2-.37,13.2-4.65,33.4-11.27,19.87-6.52,20.58-2.42,40.62-9,24.1-7.88,29.45-14.52,52.44-19.93,11.41-2.68,9.16-.83,34.68-5.29,20.58-3.6,30.86-5.4,40.62-9C449.61,350,447,347.57,471,337.13c14.14-6.16,17.51-6.4,28.58-12.39,12.67-6.86,11.85-8.49,22.58-13.51,10-4.68,13.49-5.21,27.4-11.19,8-3.44,14.47-6.6,18.74-8.8a20,20,0,0,1-4-6.39c-3.88-10,.1-22,5.57-28.84,2-2.49,2.31-2,7.68-7.9,7.28-8,6.75-9.17,10.61-12.14,5.24-4,10-5.61,15.47-7.42A54.3,54.3,0,0,1,616.79,226c6.8-.6,20.31-1.81,32.44,5.52,5.15,3.12,9,7.11,14.57,13,6.31,6.64,5.6,7.09,8.52,9.46,8.41,6.78,19.13,6.87,25.27,6.83,16.63-.1,25.38-7,27.51-4s-5.46,12.1-10.53,18.13a65.79,65.79,0,0,1-14.19,13.39,42.5,42.5,0,0,1-4.9,2.91c-3.76,1.89-5.09,2.11-7.4,3.42a23.62,23.62,0,0,0-6.6,5.88c-4.31,5.06-5.57,10-7.11,12.14-1,1.43-14,19-27.91,17.78l-.31,0c4.46,8.68-.76,21.54-7,29.5-8.73,11-15.9,8-34.44,22.07-8.79,6.64-7.53,7.58-18.93,17.05-3.93,3.27-18.5,15.35-32,22-15.88,7.83-29.89,8-52.62,8-39.47,0-63.1-9.43-85.15-3.56-15,4-23.69,7.1-23.69,7.1-6.28,2.13-10.08,3.65-15.55,5.42-7,2.29-12.26,3.56-13.26,3.81-26.18,6.82-85.83,45.87-121.21,29.92-3.55-1.61-1.82-2.62-6.63-7.54C211.31,439.33,181.19,453,124.28,438.61Z"/>
  <path class="cls-6" d="M675.38,342.65c.14-.5.36-1.34.58-2.48,2.42-12.58-2.43-28-13.69-35.76-.77-.53-12.51-8.43-18.64-3.92-4.76,3.49-3.88,12.79-2.74,17.41,1.5,6.11,4.19,7,5,11.92.2,1.26,1,7.16-5.75,16.86-7.54,10.89-15.81,14-35.56,26.88-13.19,8.6-10.15,7.6-17.8,12.24-14.79,9-28.71,13.63-47.66,19.86-16.22,5.34-24.33,8-35.81,10.11-13.6,2.48-20.17,2.11-40.7,3-18.44.78-42.26,1.79-68.25,4.58-29.79,3.2-38.38,6.16-46.75-.52-6-4.78-3.48-7.79-16-28.54a282.53,282.53,0,0,0-17.14-24.92c-7.5-10.05-11.35-15.15-15.85-19a64.07,64.07,0,0,0-25.36-12.81c-8.56-2.1-11.07-.7-18.63-3.93-4-1.72-10.1-4.31-14.53-10.58-4.87-6.87-5-14.25-5.07-19.1-.12-7,1.47-12.15,3.33-18,2.92-9.22,4.88-10.13,9.28-21.71,3.16-8.32,4.74-12.47,5.14-17.45.91-11.27-3.22-20-5.14-23.9-2.8-5.72-5.25-10.72-11-14.22-1.73-1.06-11.35-6.62-19.21-2.12s-8.06,15.44-8.13,18.09c-.23,9,4.07,9.93,5.09,20.3.47,4.8-.77,10.87-3.27,22.82s-3,11.15-4.51,19.24c-2.33,12.32-.77,11.86-3.2,27.61-1.41,9.13-2.51,13-2.1,20.41.27,4.8.52,8.73,2.58,13.14,2.89,6.18,6.71,7.77,13.39,14.19,1.66,1.59,9.7,9.33,13.42,16.59,5.55,10.8,2.23,21.89.45,31.15-.89,4.65-8.26,43,5.78,68.23,7.94,14.28,21.45,21.27,48.45,35.26,15.72,8.14,29.22,12.69,39.78,16.21,12.15,4,25.71,8.54,44.51,11.34A220.79,220.79,0,0,0,420,542.81c11.84-1,27.47-2.34,46.61-9.06,5.16-1.81,14.52-5.36,33.33-16.06,26.42-15.05,30.69-21,61.67-41.35,29.27-19.26,34.13-19.66,49-32.87a215.23,215.23,0,0,0,29.23-32.07S665.7,377.7,675.38,342.65Z"/>
</svg>
